<svg id="visual" viewBox="0 0 960 300" width="960" height="300" xmlns="http://www.w3.org/2000/svg" xmlns:xlink="http://www.w3.org/1999/xlink" version="1.1"><rect x="0" y="0" width="960" height="300" fill="#202731"></rect><path d="M0 144L17.8 147.2C35.7 150.3 71.3 156.7 106.8 162.2C142.3 167.7 177.7 172.3 213.2 178C248.7 183.7 284.3 190.3 320 183.3C355.7 176.3 391.3 155.7 426.8 156.7C462.3 157.7 497.7 180.3 533.2 182.8C568.7 185.3 604.3 167.7 640 169.3C675.7 171 711.3 192 746.8 202.5C782.3 213 817.7 213 853.2 204.2C888.7 195.3 924.3 177.7 942.2 168.8L960 160L960 0L942.2 0C924.3 0 888.7 0 853.2 0C817.7 0 782.3 0 746.8 0C711.3 0 675.7 0 640 0C604.3 0 568.7 0 533.2 0C497.7 0 462.3 0 426.8 0C391.3 0 355.7 0 320 0C284.3 0 248.7 0 213.2 0C177.7 0 142.3 0 106.8 0C71.3 0 35.7 0 17.8 0L0 0Z" fill="#ee7f91"></path><path d="M0 152L17.8 153.5C35.7 155 71.3 158 106.8 154.3C142.3 150.7 177.7 140.3 213.2 139.8C248.7 139.3 284.3 148.7 320 148.5C355.7 148.3 391.3 138.7 426.8 139.8C462.3 141 497.7 153 533.2 155C568.7 157 604.3 149 640 150C675.7 151 711.3 161 746.8 158.2C782.3 155.3 817.7 139.7 853.2 141.2C888.7 142.7 924.3 161.3 942.2 170.7L960 180L960 0L942.2 0C924.3 0 888.7 0 853.2 0C817.7 0 782.3 0 746.8 0C711.3 0 675.7 0 640 0C604.3 0 568.7 0 533.2 0C497.7 0 462.3 0 426.8 0C391.3 0 355.7 0 320 0C284.3 0 248.7 0 213.2 0C177.7 0 142.3 0 106.8 0C71.3 0 35.7 0 17.8 0L0 0Z" fill="#f36c86"></path><path d="M0 144L17.8 141.7C35.7 139.3 71.3 134.7 106.8 129.2C142.3 123.7 177.7 117.3 213.2 111.8C248.7 106.3 284.3 101.7 320 104.5C355.7 107.3 391.3 117.7 426.8 125C462.3 132.3 497.7 136.7 533.2 129.5C568.7 122.3 604.3 103.7 640 105.5C675.7 107.3 711.3 129.7 746.8 130.3C782.3 131 817.7 110 853.2 106.2C888.7 102.3 924.3 115.7 942.2 122.3L960 129L960 0L942.2 0C924.3 0 888.7 0 853.2 0C817.7 0 782.3 0 746.8 0C711.3 0 675.7 0 640 0C604.3 0 568.7 0 533.2 0C497.7 0 462.3 0 426.8 0C391.3 0 355.7 0 320 0C284.3 0 248.7 0 213.2 0C177.7 0 142.3 0 106.8 0C71.3 0 35.7 0 17.8 0L0 0Z" fill="#f8577b"></path><path d="M0 67L17.8 68.2C35.7 69.3 71.3 71.7 106.8 77.8C142.3 84 177.7 94 213.2 91.3C248.7 88.7 284.3 73.3 320 67.7C355.7 62 391.3 66 426.8 64.5C462.3 63 497.7 56 533.2 57.8C568.7 59.7 604.3 70.3 640 70.7C675.7 71 711.3 61 746.8 66.8C782.3 72.7 817.7 94.3 853.2 103C888.7 111.7 924.3 107.3 942.2 105.2L960 103L960 0L942.2 0C924.3 0 888.7 0 853.2 0C817.7 0 782.3 0 746.8 0C711.3 0 675.7 0 640 0C604.3 0 568.7 0 533.2 0C497.7 0 462.3 0 426.8 0C391.3 0 355.7 0 320 0C284.3 0 248.7 0 213.2 0C177.7 0 142.3 0 106.8 0C71.3 0 35.7 0 17.8 0L0 0Z" fill="#fc3c70"></path><path d="M0 62L17.8 58.8C35.7 55.7 71.3 49.3 106.8 44.5C142.3 39.7 177.7 36.3 213.2 40.7C248.7 45 284.3 57 320 57.5C355.7 58 391.3 47 426.8 44C462.3 41 497.7 46 533.2 52.2C568.7 58.3 604.3 65.7 640 69.7C675.7 73.7 711.3 74.3 746.8 72.3C782.3 70.3 817.7 65.7 853.2 63.2C888.7 60.7 924.3 60.3 942.2 60.2L960 60L960 0L942.2 0C924.3 0 888.7 0 853.2 0C817.7 0 782.3 0 746.8 0C711.3 0 675.7 0 640 0C604.3 0 568.7 0 533.2 0C497.7 0 462.3 0 426.8 0C391.3 0 355.7 0 320 0C284.3 0 248.7 0 213.2 0C177.7 0 142.3 0 106.8 0C71.3 0 35.7 0 17.8 0L0 0Z" fill="#ff0066"></path></svg>